# xmcd CD database file
#
# Track frame offsets:
#	150
#	36635
#	63527
#	95040
#	126852
#	185155
#	228770
#
# Disc length: 3335 seconds
#
# Revision: 0
# Processed by: cddbd v1.5.2PL0 Copyright (c) Steve Scherf et al.
# Submitted via: CDex 1.70beta2
#
DISCID=660d0507
DTITLE=Pleszkán Frigyes - Magic Hands
DYEAR=1999
DGENRE=Jazz
TTITLE0=Blues No 251
TTITLE1=The Girl from Ipanema
TTITLE2=My Funny Valentine
TTITLE3=On the Sunny Side of the Street
TTITLE4=Diggin' Up
TTITLE5=Wandering In the Swiss Alps
TTITLE6=Signature Blues
EXTD=YEAR: 1999
EXTT0=
EXTT1=
EXTT2=
EXTT3=
EXTT4=
EXTT5=
EXTT6=
PLAYORDER=
